<svg width="10" height="10" viewBox="0 0 10 10" fill="none" xmlns="http://www.w3.org/2000/svg">
<path d="M1.10816 7.937C0.844552 8.2006 0.844544 8.62799 1.10814 8.8916C1.37174 9.1552 1.79913 9.15521 2.06274 8.89161L1.10816 7.937ZM9.08918 1.58583C9.08919 1.21304 8.78698 0.910828 8.41419 0.910822L2.33919 0.910713C1.9664 0.910706 1.66419 1.21291 1.66418 1.5857C1.66417 1.95849 1.96637 2.26071 2.33917 2.26071L7.73917 2.26081L7.73907 7.66081C7.73906 8.0336 8.04127 8.33581 8.41406 8.33582C8.78685 8.33583 9.08906 8.03363 9.08907 7.66083L9.08918 1.58583ZM2.06274 8.89161L8.89147 2.06313L7.93689 1.10852L1.10816 7.937L2.06274 8.89161Z" fill="#202020"/>
</svg>
