<?xml version="1.0" encoding="UTF-8"?>
<svg id="Layer_1" data-name="Layer 1" xmlns="http://www.w3.org/2000/svg" version="1.1" viewBox="0 0 20 20">
  <path d="M19.8,18.6l-5-5c1.3-1.7,2-3.8,1.8-5.9-.1-2.1-1.1-4.1-2.7-5.6C12.4.7,10.3,0,8.1,0,6,0,4,.9,2.4,2.4.9,4,0,6,0,8.1c0,2.1.7,4.2,2.1,5.8,1.4,1.6,3.4,2.6,5.6,2.7,2.1.2,4.2-.5,5.9-1.8l5,5c.2.1.4.2.6.2s.4,0,.6-.2c.2-.1.2-.4.2-.6s0-.4-.2-.6ZM13.1,13.1c-1.2,1.2-2.9,1.9-4.7,1.9s-2.6-.4-3.7-1.1c-1.1-.7-1.9-1.8-2.4-3-.5-1.2-.6-2.5-.4-3.8.2-1.3.9-2.5,1.8-3.4.9-.9,2.1-1.6,3.4-1.8,1.3-.3,2.6-.1,3.8.4,1.2.5,2.3,1.4,3,2.4.7,1.1,1.1,2.4,1.1,3.7s-.7,3.5-1.9,4.7Z" fill="#9b9b9b" stroke-width="0"/>
</svg>