<svg width="26" height="26" viewBox="0 0 26 26" fill="#202020" xmlns="http://www.w3.org/2000/svg">
<path d="M12.9996 2.34246C16.4707 2.34246 16.8819 2.35572 18.2527 2.41827C19.5202 2.47606 20.2085 2.68784 20.6666 2.86588C21.2734 3.1017 21.7065 3.38341 22.1614 3.83829C22.6163 4.29323 22.898 4.72629 23.1338 5.33309C23.3119 5.79118 23.5236 6.47952 23.5814 7.74701C23.644 9.1178 23.6572 9.52898 23.6572 13.0001C23.6572 16.4713 23.644 16.8824 23.5814 18.2532C23.5236 19.5207 23.3119 20.2091 23.1338 20.6672C22.898 21.274 22.6163 21.707 22.1614 22.1619C21.7065 22.6168 21.2734 22.8985 20.6666 23.1344C20.2085 23.3124 19.5202 23.5242 18.2527 23.582C16.8821 23.6445 16.471 23.6578 12.9996 23.6578C9.52814 23.6578 9.11707 23.6445 7.74642 23.582C6.47893 23.5242 5.79059 23.3124 5.3325 23.1344C4.72569 22.8985 4.29263 22.6168 3.83775 22.1619C3.38286 21.707 3.1011 21.274 2.86527 20.6672C2.68724 20.2091 2.47546 19.5207 2.41766 18.2532C2.35512 16.8824 2.34186 16.4713 2.34186 13.0001C2.34186 9.52898 2.35512 9.1178 2.41766 7.74701C2.47546 6.47952 2.68724 5.79118 2.86527 5.33309C3.1011 4.72629 3.38281 4.29323 3.83775 3.83834C4.29263 3.38341 4.72569 3.1017 5.3325 2.86588C5.79059 2.68784 6.47893 2.47606 7.74642 2.41827C9.11722 2.35572 9.5284 2.34246 12.9996 2.34246ZM12.9996 0.00012207C9.46895 0.00012207 9.02625 0.0150871 7.63965 0.0783531C6.25595 0.141464 5.31093 0.361244 4.48403 0.682579C3.62916 1.0148 2.90418 1.45932 2.18142 2.18202C1.45871 2.90478 1.0142 3.62976 0.682023 4.48463C0.360635 5.31152 0.140854 6.25654 0.077743 7.64024C0.0144768 9.02683 -0.000488281 9.46953 -0.000488281 13.0001C-0.000488281 16.5307 0.0144768 16.9734 0.077743 18.36C0.140854 19.7437 0.360635 20.6887 0.682023 21.5156C1.0142 22.3705 1.45871 23.0955 2.18142 23.8182C2.90418 24.5409 3.62916 24.9854 4.48403 25.3176C5.31093 25.639 6.25595 25.8588 7.63965 25.9219C9.02625 25.9852 9.46895 26.0001 12.9996 26.0001C16.5302 26.0001 16.9729 25.9852 18.3595 25.9219C19.7432 25.8588 20.6882 25.639 21.5151 25.3176C22.3699 24.9854 23.0949 24.5409 23.8177 23.8182C24.5404 23.0955 24.9849 22.3705 25.3171 21.5156C25.6385 20.6887 25.8583 19.7437 25.9214 18.36C25.9846 16.9734 25.9996 16.5307 25.9996 13.0001C25.9996 9.46953 25.9846 9.02683 25.9214 7.64024C25.8583 6.25654 25.6385 5.31152 25.3171 4.48463C24.9849 3.62976 24.5404 2.90478 23.8177 2.18202C23.0949 1.45932 22.3699 1.0148 21.5151 0.682579C20.6882 0.361244 19.7432 0.141464 18.3595 0.0783531C16.9729 0.0150871 16.5302 0.00012207 12.9996 0.00012207Z" fill="#F2F2F2"/>
<path d="M13.0058 6.3302C9.31886 6.3302 6.33008 9.31898 6.33008 13.0058C6.33008 16.6928 9.31886 19.6815 13.0058 19.6815C16.6927 19.6815 19.6815 16.6928 19.6815 13.0058C19.6815 9.31898 16.6927 6.3302 13.0058 6.3302ZM13.0058 17.3392C10.6125 17.3392 8.67242 15.3991 8.67242 13.0058C8.67242 10.6126 10.6125 8.67254 13.0058 8.67254C15.399 8.67254 17.3391 10.6126 17.3391 13.0058C17.3391 15.3991 15.399 17.3392 13.0058 17.3392Z" fill="#F2F2F2"/>
<path d="M21.5043 6.06308C21.5043 6.92461 20.8058 7.62306 19.9443 7.62306C19.0827 7.62306 18.3843 6.92461 18.3843 6.06308C18.3843 5.20151 19.0827 4.50305 19.9443 4.50305C20.8058 4.50305 21.5043 5.20151 21.5043 6.06308Z" fill="#F2F2F2"/>
</svg>
