<?xml version="1.0" encoding="UTF-8"?>
<svg id="Layer_1" data-name="Layer 1" width="24px" xmlns="http://www.w3.org/2000/svg" version="1.1" viewBox="0 0 26 26">
  <defs>
    <style>
      .cls-1 {
        fill: #202020;
      }

      .cls-1, .cls-2 {
        stroke-width: 0px;
      }

      .cls-2 {
        fill: #202020;
      }
    </style>
  </defs>
  <path class="cls-2" d="M13,2.3c3.5,0,3.9,0,5.3,0,1.3,0,2,.3,2.4.4.6.2,1,.5,1.5,1,.5.5.7.9,1,1.5.2.5.4,1.1.4,2.4,0,1.4,0,1.8,0,5.3s0,3.9,0,5.3c0,1.3-.3,2-.4,2.4-.2.6-.5,1-1,1.5-.5.5-.9.7-1.5,1-.5.2-1.1.4-2.4.4-1.4,0-1.8,0-5.3,0s-3.9,0-5.3,0c-1.3,0-2-.3-2.4-.4-.6-.2-1-.5-1.5-1-.5-.5-.7-.9-1-1.5-.2-.5-.4-1.1-.4-2.4,0-1.4,0-1.8,0-5.3s0-3.9,0-5.3c0-1.3.3-2,.4-2.4.2-.6.5-1,1-1.5.5-.5.9-.7,1.5-1,.5-.2,1.1-.4,2.4-.4,1.4,0,1.8,0,5.3,0ZM13,0C9.5,0,9,0,7.6,0c-1.4,0-2.3.3-3.2.6-.9.3-1.6.8-2.3,1.5-.7.7-1.2,1.4-1.5,2.3-.3.8-.5,1.8-.6,3.2C0,9,0,9.5,0,13s0,4,0,5.4c0,1.4.3,2.3.6,3.2.3.9.8,1.6,1.5,2.3.7.7,1.4,1.2,2.3,1.5.8.3,1.8.5,3.2.6,1.4,0,1.8,0,5.4,0s4,0,5.4,0c1.4,0,2.3-.3,3.2-.6.9-.3,1.6-.8,2.3-1.5.7-.7,1.2-1.4,1.5-2.3.3-.8.5-1.8.6-3.2,0-1.4,0-1.8,0-5.4s0-4,0-5.4c0-1.4-.3-2.3-.6-3.2-.3-.9-.8-1.6-1.5-2.3-.7-.7-1.4-1.2-2.3-1.5-.8-.3-1.8-.5-3.2-.6C17,0,16.5,0,13,0Z"/>
  <path class="cls-2" d="M13,6.3c-3.7,0-6.7,3-6.7,6.7s3,6.7,6.7,6.7,6.7-3,6.7-6.7-3-6.7-6.7-6.7ZM13,17.3c-2.4,0-4.3-1.9-4.3-4.3s1.9-4.3,4.3-4.3,4.3,1.9,4.3,4.3-1.9,4.3-4.3,4.3Z"/>
  <path class="cls-1" d="M21.5,6.1c0,.9-.7,1.6-1.6,1.6s-1.6-.7-1.6-1.6.7-1.6,1.6-1.6,1.6.7,1.6,1.6Z"/>
</svg>