<svg width="19" height="18" viewBox="0 0 19 18" fill="#202020" xmlns="http://www.w3.org/2000/svg">
<path fill-rule="evenodd" clip-rule="evenodd" d="M4.70776 1.87642C4.70776 2.89917 3.92902 3.72686 2.7112 3.72686C1.54083 3.72686 0.762088 2.89917 0.786189 1.87642C0.762088 0.803956 1.54081 0.000366211 2.73453 0.000366211C3.929 0.000366211 4.68441 0.803956 4.70776 1.87642ZM0.8841 17.1017V5.18869H4.5865V17.101H0.8841V17.1017Z" fill="#202020"/>
<path fill-rule="evenodd" clip-rule="evenodd" d="M7.55397 8.99113C7.55397 7.5052 7.50501 6.23843 7.45605 5.19082H10.6719L10.8429 6.82286H10.9159C11.4032 6.06747 12.621 4.92346 14.5943 4.92346C17.0299 4.92346 18.857 6.5314 18.857 10.038V17.1039H15.1546V10.5019C15.1546 8.96627 14.6191 7.91942 13.2793 7.91942C12.2558 7.91942 11.6472 8.62586 11.404 9.30744C11.3061 9.55146 11.2579 9.89187 11.2579 10.2338V17.1039H7.55546V8.99113H7.55397Z" fill="#202020"/>
</svg>
