<svg width="12" height="12" viewBox="0 0 12 12" fill="none" xmlns="http://www.w3.org/2000/svg">
<path d="M6.8837 6.00023L10.8169 2.06748C11.061 1.82333 11.061 1.42749 10.8169 1.18336C10.5727 0.939207 10.1769 0.939207 9.93276 1.18336L5.99999 5.11652L2.06724 1.18336C1.82309 0.939207 1.42724 0.939207 1.18311 1.18336C0.938982 1.42751 0.938962 1.82335 1.18311 2.06748L5.11628 6.00023L1.18311 9.93301C0.938962 10.1772 0.938962 10.573 1.18311 10.8171C1.42726 11.0613 1.82311 11.0613 2.06724 10.8171L5.99999 6.88395L9.93274 10.8171C10.1769 11.0613 10.5727 11.0613 10.8169 10.8171C11.061 10.573 11.061 10.1771 10.8169 9.93301L6.8837 6.00023Z" fill="#202020" stroke="#202020" stroke-width="0.1"/>
</svg>
