<svg width="24" height="17" viewBox="0 0 24 17" fill="#202020" xmlns="http://www.w3.org/2000/svg">
<path fill-rule="evenodd" clip-rule="evenodd" d="M22.6915 1.28719C23.0642 1.65986 23.3327 2.12366 23.4704 2.63241C24.2631 5.8232 24.0799 10.8626 23.4857 14.1765C23.3481 14.6852 23.0795 15.149 22.7069 15.5217C22.3342 15.8944 21.8704 16.1629 21.3616 16.3006C19.4992 16.8085 12.0033 16.8085 12.0033 16.8085C12.0033 16.8085 4.50731 16.8085 2.64486 16.3006C2.13612 16.1629 1.67231 15.8944 1.29964 15.5217C0.926961 15.149 0.658419 14.6852 0.520754 14.1765C-0.276557 10.9996 -0.0579881 5.95711 0.505363 2.64781C0.643026 2.13906 0.911568 1.67525 1.28424 1.30258C1.65692 0.929904 2.12072 0.66136 2.62947 0.523701C4.49191 0.0157545 11.9879 0.000366211 11.9879 0.000366211C11.9879 0.000366211 19.4838 0.000366211 21.3462 0.508303C21.855 0.645972 22.3188 0.914516 22.6915 1.28719ZM15.8205 8.40444L9.60209 12.0062V4.80269L15.8205 8.40444Z" fill="#202020"/>
</svg>
